<mxfile host="app.diagrams.net" agent="Mozilla/5.0 (Macintosh; Intel Mac OS X 10_15_7) AppleWebKit/537.36 (KHTML, like Gecko) Chrome/128.0.0.0 Safari/537.36" version="24.8.4">
  <diagram name="第 1 页" id="ov3-2ZxVzbA_uYJa8KsF">
    <mxGraphModel dx="1912" dy="729" grid="1" gridSize="10" guides="1" tooltips="1" connect="1" arrows="1" fold="1" page="1" pageScale="1" pageWidth="827" pageHeight="1169" math="0" shadow="0">
      <root>
        <mxCell id="0" />
        <mxCell id="1" parent="0" />
        <mxCell id="O-Wifks-kzLdKlH56Ls9-1" value="" style="rounded=1;whiteSpace=wrap;html=1;fillColor=#E6E6E6;arcSize=8;strokeColor=#4D4D4D;strokeWidth=2;" parent="1" vertex="1">
          <mxGeometry y="160" width="160" height="120" as="geometry" />
        </mxCell>
        <mxCell id="O-Wifks-kzLdKlH56Ls9-2" value="" style="endArrow=none;html=1;rounded=0;strokeColor=#4D4D4D;strokeWidth=2;" parent="1" edge="1">
          <mxGeometry width="50" height="50" relative="1" as="geometry">
            <mxPoint y="200" as="sourcePoint" />
            <mxPoint x="160" y="200" as="targetPoint" />
          </mxGeometry>
        </mxCell>
        <mxCell id="O-Wifks-kzLdKlH56Ls9-3" value="" style="endArrow=none;html=1;rounded=0;strokeColor=#4D4D4D;strokeWidth=2;" parent="1" edge="1">
          <mxGeometry width="50" height="50" relative="1" as="geometry">
            <mxPoint y="240" as="sourcePoint" />
            <mxPoint x="160" y="240" as="targetPoint" />
          </mxGeometry>
        </mxCell>
        <mxCell id="O-Wifks-kzLdKlH56Ls9-4" value="" style="rounded=1;whiteSpace=wrap;html=1;fillColor=#CDDCAB;strokeColor=#4D4D4D;arcSize=8;strokeWidth=2;" parent="1" vertex="1">
          <mxGeometry x="240" y="160" width="160" height="120" as="geometry" />
        </mxCell>
        <mxCell id="O-Wifks-kzLdKlH56Ls9-5" value="" style="endArrow=none;html=1;rounded=0;strokeColor=#4D4D4D;strokeWidth=2;" parent="1" edge="1">
          <mxGeometry width="50" height="50" relative="1" as="geometry">
            <mxPoint x="240" y="200" as="sourcePoint" />
            <mxPoint x="400" y="200" as="targetPoint" />
          </mxGeometry>
        </mxCell>
        <mxCell id="O-Wifks-kzLdKlH56Ls9-6" value="" style="endArrow=none;html=1;rounded=0;strokeColor=#4D4D4D;strokeWidth=2;" parent="1" edge="1">
          <mxGeometry width="50" height="50" relative="1" as="geometry">
            <mxPoint x="240" y="240" as="sourcePoint" />
            <mxPoint x="400" y="240" as="targetPoint" />
          </mxGeometry>
        </mxCell>
        <mxCell id="O-Wifks-kzLdKlH56Ls9-7" value="" style="rounded=1;whiteSpace=wrap;html=1;fillColor=#A2D6E4;strokeColor=#4D4D4D;arcSize=8;strokeWidth=2;" parent="1" vertex="1">
          <mxGeometry x="480" y="160" width="160" height="120" as="geometry" />
        </mxCell>
        <mxCell id="O-Wifks-kzLdKlH56Ls9-8" value="" style="endArrow=none;html=1;rounded=0;strokeColor=#4D4D4D;strokeWidth=2;" parent="1" edge="1">
          <mxGeometry width="50" height="50" relative="1" as="geometry">
            <mxPoint x="480" y="200" as="sourcePoint" />
            <mxPoint x="640" y="200" as="targetPoint" />
          </mxGeometry>
        </mxCell>
        <mxCell id="O-Wifks-kzLdKlH56Ls9-9" value="" style="endArrow=none;html=1;rounded=0;strokeColor=#4D4D4D;strokeWidth=2;" parent="1" edge="1">
          <mxGeometry width="50" height="50" relative="1" as="geometry">
            <mxPoint x="480" y="240" as="sourcePoint" />
            <mxPoint x="640" y="240" as="targetPoint" />
          </mxGeometry>
        </mxCell>
        <mxCell id="O-Wifks-kzLdKlH56Ls9-10" value="" style="rounded=1;whiteSpace=wrap;html=1;fillColor=#A2D6E4;strokeColor=#4D4D4D;strokeWidth=2;" parent="1" vertex="1">
          <mxGeometry x="720" y="180" width="160" height="80" as="geometry" />
        </mxCell>
        <mxCell id="O-Wifks-kzLdKlH56Ls9-13" value="" style="endArrow=none;html=1;rounded=0;strokeColor=#4D4D4D;strokeWidth=2;" parent="1" edge="1">
          <mxGeometry width="50" height="50" relative="1" as="geometry">
            <mxPoint x="720" y="219.5" as="sourcePoint" />
            <mxPoint x="880" y="219.5" as="targetPoint" />
          </mxGeometry>
        </mxCell>
        <mxCell id="O-Wifks-kzLdKlH56Ls9-20" value="&lt;font face=&quot;Verdana&quot; style=&quot;font-size: 15px;&quot;&gt;VTable Pointer&lt;/font&gt;" style="rounded=1;whiteSpace=wrap;html=1;fillColor=none;strokeColor=none;" parent="1" vertex="1">
          <mxGeometry x="20" y="170" width="120" height="20" as="geometry" />
        </mxCell>
        <mxCell id="O-Wifks-kzLdKlH56Ls9-22" value="&lt;font face=&quot;Verdana&quot; style=&quot;font-size: 15px;&quot;&gt;a&lt;/font&gt;" style="rounded=1;whiteSpace=wrap;html=1;fillColor=none;strokeColor=none;" parent="1" vertex="1">
          <mxGeometry x="20" y="210" width="120" height="20" as="geometry" />
        </mxCell>
        <mxCell id="O-Wifks-kzLdKlH56Ls9-23" value="&lt;font face=&quot;Verdana&quot; style=&quot;font-size: 15px;&quot;&gt;b&lt;/font&gt;" style="rounded=1;whiteSpace=wrap;html=1;fillColor=none;strokeColor=none;" parent="1" vertex="1">
          <mxGeometry x="20" y="250" width="120" height="20" as="geometry" />
        </mxCell>
        <mxCell id="O-Wifks-kzLdKlH56Ls9-24" value="&lt;font face=&quot;Verdana&quot; style=&quot;font-size: 15px;&quot;&gt;Offset To Top&lt;/font&gt;" style="rounded=1;whiteSpace=wrap;html=1;fillColor=none;strokeColor=none;" parent="1" vertex="1">
          <mxGeometry x="260" y="170" width="120" height="20" as="geometry" />
        </mxCell>
        <mxCell id="O-Wifks-kzLdKlH56Ls9-25" value="&lt;font face=&quot;Verdana&quot; style=&quot;font-size: 15px;&quot;&gt;B&#39;s RTTI Pointer&lt;/font&gt;" style="rounded=1;whiteSpace=wrap;html=1;fillColor=none;strokeColor=none;" parent="1" vertex="1">
          <mxGeometry x="256" y="210" width="130" height="20" as="geometry" />
        </mxCell>
        <mxCell id="O-Wifks-kzLdKlH56Ls9-26" value="&lt;font style=&quot;font-size: 15px;&quot; face=&quot;Verdana&quot;&gt;foo()&lt;/font&gt;" style="rounded=1;whiteSpace=wrap;html=1;fillColor=none;strokeColor=none;" parent="1" vertex="1">
          <mxGeometry x="260" y="250" width="120" height="20" as="geometry" />
        </mxCell>
        <mxCell id="O-Wifks-kzLdKlH56Ls9-27" value="&lt;font face=&quot;Verdana&quot; style=&quot;font-size: 15px;&quot;&gt;VTable Pointer&lt;/font&gt;" style="rounded=1;whiteSpace=wrap;html=1;fillColor=none;strokeColor=none;" parent="1" vertex="1">
          <mxGeometry x="500" y="170" width="120" height="20" as="geometry" />
        </mxCell>
        <mxCell id="O-Wifks-kzLdKlH56Ls9-28" value="&lt;font face=&quot;Verdana&quot; style=&quot;font-size: 15px;&quot;&gt;B&#39;s type string&lt;/font&gt;" style="rounded=1;whiteSpace=wrap;html=1;fillColor=none;strokeColor=none;" parent="1" vertex="1">
          <mxGeometry x="500" y="210" width="120" height="20" as="geometry" />
        </mxCell>
        <mxCell id="O-Wifks-kzLdKlH56Ls9-29" value="&lt;font face=&quot;Verdana&quot; style=&quot;font-size: 15px;&quot;&gt;A&#39;s RTTI Pointer&lt;/font&gt;" style="rounded=1;whiteSpace=wrap;html=1;fillColor=none;strokeColor=none;" parent="1" vertex="1">
          <mxGeometry x="496" y="250" width="130" height="20" as="geometry" />
        </mxCell>
        <mxCell id="O-Wifks-kzLdKlH56Ls9-30" value="&lt;font style=&quot;font-size: 15px;&quot; face=&quot;Verdana&quot;&gt;VTable Pointer&lt;/font&gt;" style="rounded=1;whiteSpace=wrap;html=1;fillColor=none;strokeColor=none;" parent="1" vertex="1">
          <mxGeometry x="740" y="190" width="120" height="20" as="geometry" />
        </mxCell>
        <mxCell id="O-Wifks-kzLdKlH56Ls9-31" value="&lt;font style=&quot;font-size: 15px;&quot; face=&quot;Verdana&quot;&gt;A&#39;s type string&lt;/font&gt;" style="rounded=1;whiteSpace=wrap;html=1;fillColor=none;strokeColor=none;" parent="1" vertex="1">
          <mxGeometry x="740" y="230" width="120" height="20" as="geometry" />
        </mxCell>
        <mxCell id="O-Wifks-kzLdKlH56Ls9-32" value="" style="endArrow=classic;html=1;rounded=1;exitX=1;exitY=0.2;exitDx=0;exitDy=0;exitPerimeter=0;strokeColor=#4D4D4D;curved=0;strokeWidth=2;" parent="1" source="O-Wifks-kzLdKlH56Ls9-1" edge="1">
          <mxGeometry width="50" height="50" relative="1" as="geometry">
            <mxPoint x="190" y="200" as="sourcePoint" />
            <mxPoint x="240" y="240" as="targetPoint" />
            <Array as="points">
              <mxPoint x="200" y="184" />
              <mxPoint x="200" y="240" />
            </Array>
          </mxGeometry>
        </mxCell>
        <mxCell id="O-Wifks-kzLdKlH56Ls9-33" value="" style="endArrow=classic;html=1;rounded=1;exitX=1;exitY=0.5;exitDx=0;exitDy=0;strokeColor=#4D4D4D;curved=0;strokeWidth=2;" parent="1" source="O-Wifks-kzLdKlH56Ls9-4" edge="1">
          <mxGeometry width="50" height="50" relative="1" as="geometry">
            <mxPoint x="390" y="430" as="sourcePoint" />
            <mxPoint x="490" y="160" as="targetPoint" />
            <Array as="points">
              <mxPoint x="440" y="220" />
              <mxPoint x="440" y="160" />
            </Array>
          </mxGeometry>
        </mxCell>
        <mxCell id="O-Wifks-kzLdKlH56Ls9-34" value="" style="endArrow=classic;html=1;rounded=1;exitX=1.006;exitY=0.842;exitDx=0;exitDy=0;exitPerimeter=0;entryX=0.044;entryY=0.013;entryDx=0;entryDy=0;entryPerimeter=0;flowAnimation=0;shadow=0;strokeColor=#4D4D4D;curved=0;strokeWidth=2;" parent="1" source="O-Wifks-kzLdKlH56Ls9-7" target="O-Wifks-kzLdKlH56Ls9-10" edge="1">
          <mxGeometry width="50" height="50" relative="1" as="geometry">
            <mxPoint x="390" y="430" as="sourcePoint" />
            <mxPoint x="440" y="380" as="targetPoint" />
            <Array as="points">
              <mxPoint x="680" y="260" />
              <mxPoint x="680" y="181" />
            </Array>
          </mxGeometry>
        </mxCell>
        <mxCell id="O-Wifks-kzLdKlH56Ls9-35" value="&lt;font style=&quot;font-size: 15px;&quot; face=&quot;Verdana&quot;&gt;Layout of pb&lt;/font&gt;" style="rounded=1;whiteSpace=wrap;html=1;fontSize=14;strokeColor=#FFFFFF;fillColor=#FFFFFF;" parent="1" vertex="1">
          <mxGeometry x="20" y="290" width="120" height="20" as="geometry" />
        </mxCell>
        <mxCell id="O-Wifks-kzLdKlH56Ls9-36" value="&lt;font style=&quot;font-size: 15px;&quot; face=&quot;Verdana&quot;&gt;VTable of B&lt;/font&gt;" style="rounded=1;whiteSpace=wrap;html=1;fontSize=14;strokeColor=#FFFFFF;fillColor=#FFFFFF;" parent="1" vertex="1">
          <mxGeometry x="260" y="290" width="120" height="20" as="geometry" />
        </mxCell>
        <mxCell id="O-Wifks-kzLdKlH56Ls9-37" value="" style="rounded=1;whiteSpace=wrap;html=1;fontSize=14;strokeColor=#FFFFFF;fillColor=#FFFFFF;" parent="1" vertex="1">
          <mxGeometry x="500" y="290" width="120" height="20" as="geometry" />
        </mxCell>
        <mxCell id="O-Wifks-kzLdKlH56Ls9-38" value="&lt;font style=&quot;font-size: 15px;&quot; face=&quot;Verdana&quot;&gt;B&#39;s RTTI data&lt;/font&gt;" style="rounded=1;whiteSpace=wrap;html=1;fontSize=14;strokeColor=#FFFFFF;fillColor=#FFFFFF;" parent="1" vertex="1">
          <mxGeometry x="500" y="290" width="120" height="20" as="geometry" />
        </mxCell>
        <mxCell id="O-Wifks-kzLdKlH56Ls9-39" value="&lt;font style=&quot;font-size: 15px;&quot; face=&quot;Verdana&quot;&gt;A&#39;s RTTI data&lt;/font&gt;" style="rounded=1;whiteSpace=wrap;html=1;fontSize=14;strokeColor=#FFFFFF;fillColor=#FFFFFF;" parent="1" vertex="1">
          <mxGeometry x="740" y="290" width="120" height="20" as="geometry" />
        </mxCell>
      </root>
    </mxGraphModel>
  </diagram>
</mxfile>
